<?xml version="1.0" standalone="no"?>
<!DOCTYPE svg PUBLIC "-//W3C//DTD SVG 20010904//EN"
 "http://www.w3.org/TR/2001/REC-SVG-20010904/DTD/svg10.dtd">
<svg version="1.0" xmlns="http://www.w3.org/2000/svg"
 width="400.000000pt" height="400.000000pt" viewBox="0 0 400.000000 400.000000"
 preserveAspectRatio="xMidYMid meet">

<g transform="translate(0.000000,400.000000) scale(0.100000,-0.100000)"
fill="#000000" stroke="none">
<path d="M1944 3769 c-17 -19 -19 -38 -19 -209 0 -171 2 -190 19 -209 26 -28
88 -29 116 -1 19 19 20 33 20 210 0 177 -1 191 -20 210 -28 28 -90 27 -116 -1z"/>
<path d="M926 3314 c-52 -53 -39 -80 127 -255 79 -83 100 -99 125 -99 21 0 38
9 56 31 49 58 40 75 -128 247 -112 113 -133 122 -180 76z"/>
<path d="M2977 3318 c-14 -13 -70 -71 -126 -131 -114 -121 -124 -147 -74 -199
45 -47 68 -39 159 55 189 195 197 208 148 266 -31 38 -72 41 -107 9z"/>
<path d="M1796 2884 c-246 -45 -468 -164 -657 -353 -166 -165 -275 -348 -342
-570 l-32 -106 -110 0 c-104 0 -113 -2 -178 -33 -140 -69 -241 -209 -268 -373
-34 -206 78 -426 264 -521 55 -28 74 -32 168 -36 95 -4 111 -2 166 20 l61 25
17 -36 c37 -79 148 -235 222 -312 191 -200 401 -320 653 -375 64 -14 126 -19
250 -18 144 0 178 3 270 26 249 63 453 184 630 376 74 80 158 199 203 288 l26
52 61 -24 c128 -52 294 -26 413 65 176 135 239 392 149 602 -49 114 -164 221
-276 259 -62 20 -182 29 -224 16 -15 -5 -23 9 -51 101 -115 378 -355 663 -696
828 -215 104 -486 141 -719 99z m492 -200 c663 -190 1007 -976 717 -1636 -112
-255 -329 -479 -568 -588 -130 -59 -230 -82 -379 -87 -196 -8 -323 15 -503 92
-83 35 -231 143 -315 231 -176 182 -268 363 -320 624 -20 100 -22 133 -17 270
8 213 43 349 140 535 105 202 287 384 482 482 78 40 219 89 279 98 47 7 48 7
97 -41 30 -29 49 -57 49 -71 0 -15 -32 -57 -94 -122 -107 -113 -132 -164 -124
-256 12 -139 139 -210 333 -185 132 17 203 77 213 180 7 74 -38 137 -111 155
-61 16 -109 -63 -72 -118 22 -33 10 -39 -84 -45 -64 -4 -80 -1 -100 15 -21 17
-22 22 -11 44 7 13 48 61 91 105 46 48 88 102 101 130 26 58 28 132 4 188
l-16 39 61 -7 c33 -4 100 -18 147 -32z m-1581 -1000 l29 -6 1 -136 c1 -137 19
-283 48 -376 8 -27 15 -55 15 -61 0 -7 -25 -20 -56 -30 -185 -58 -374 93 -374
299 0 140 78 254 205 298 53 19 85 21 132 12z m2760 -25 c59 -29 126 -105 152
-172 42 -115 17 -239 -68 -330 -77 -84 -180 -113 -285 -83 -31 9 -56 21 -56
27 0 6 7 37 15 68 31 120 46 240 46 373 0 133 0 137 22 142 40 8 131 -4 174
-25z"/>
<path d="M1495 1519 c-66 -58 -71 -151 -11 -216 42 -46 112 -56 163 -24 36 23
73 87 73 126 0 14 -9 44 -20 66 -42 82 -140 105 -205 48z"/>
<path d="M2347 1520 c-82 -72 -70 -197 23 -245 108 -56 228 54 192 174 -18 59
-62 94 -125 99 -49 4 -57 2 -90 -28z"/>
<path d="M1626 1108 c11 -70 62 -168 118 -222 73 -71 141 -100 246 -104 115
-5 179 19 264 99 66 61 118 155 129 231 l6 37 -385 1 -384 0 6 -42z"/>
</g>
</svg>
