<?xml version="1.0" standalone="no"?>
<!DOCTYPE svg PUBLIC "-//W3C//DTD SVG 20010904//EN"
 "http://www.w3.org/TR/2001/REC-SVG-20010904/DTD/svg10.dtd">
<svg version="1.0" xmlns="http://www.w3.org/2000/svg"
 width="393.000000pt" height="400.000000pt" viewBox="0 0 393.000000 400.000000"
 preserveAspectRatio="xMidYMid meet">

<g transform="translate(0.000000,400.000000) scale(0.100000,-0.100000)"
fill="#000000" stroke="none">
<path d="M676 3779 l-26 -31 0 -523 0 -524 -57 -32 c-182 -103 -347 -229 -379
-291 -22 -42 -21 -1902 1 -1975 21 -70 81 -135 163 -175 l67 -33 600 0 600 0
66 31 c77 37 122 80 155 149 l24 50 0 971 0 972 -39 46 c-46 57 -192 166 -318
238 l-93 53 0 532 0 532 -29 20 c-28 20 -41 21 -369 21 l-340 0 -26 -31z m594
-209 l0 -90 -220 0 -220 0 0 90 0 90 220 0 220 0 0 -90z m0 -581 c0 -197 4
-348 10 -358 5 -10 53 -44 107 -76 123 -73 236 -148 291 -194 l42 -35 0 -936
c0 -1058 6 -982 -80 -1027 l-43 -23 -550 0 c-604 0 -589 -1 -642 62 l-25 30 0
947 0 947 28 26 c47 44 162 123 284 194 92 53 120 74 128 98 6 17 10 159 10
357 l0 329 220 0 220 0 0 -341z"/>
<path d="M910 2049 c-116 -45 -208 -139 -274 -279 -46 -97 -65 -173 -73 -291
-10 -162 26 -329 98 -456 42 -74 82 -117 153 -170 256 -189 572 -34 688 337
20 65 23 96 23 230 0 179 -12 238 -75 367 -52 105 -149 207 -235 248 -83 40
-222 46 -305 14z m222 -148 c109 -47 196 -200 219 -391 37 -294 -115 -583
-306 -583 -190 0 -341 288 -305 581 37 293 213 470 392 393z"/>
<path d="M2679 3339 c-14 -5 -31 -21 -38 -35 -8 -17 -11 -158 -11 -472 l0
-448 -75 -42 c-158 -91 -285 -194 -306 -250 -5 -13 -9 -398 -9 -855 l0 -832
24 -50 c26 -58 80 -109 145 -139 45 -21 58 -21 576 -21 l530 0 57 28 c70 34
124 94 143 161 22 73 22 1673 1 1714 -29 57 -184 178 -337 264 l-38 21 -3 458
-3 458 -23 23 c-22 23 -25 23 -315 25 -171 1 -303 -2 -318 -8z m481 -224 l0
-85 -180 0 -180 0 0 85 0 85 180 0 180 0 0 -85z m2 -518 c2 -220 6 -277 17
-291 8 -10 58 -43 110 -74 98 -56 115 -68 209 -137 44 -33 52 -44 52 -72 l0
-33 -393 0 -394 0 -24 -26 -24 -26 -2 -616 c-2 -484 0 -622 10 -642 23 -45 55
-49 455 -49 l372 -1 0 -108 c0 -83 -4 -113 -16 -131 -35 -50 -49 -51 -557 -51
l-474 0 -34 23 c-18 12 -39 34 -46 47 -10 19 -13 206 -13 832 l0 806 59 45
c33 24 92 64 130 88 39 24 99 62 133 84 l63 40 3 283 2 282 180 0 179 0 3
-273z m388 -1282 l0 -525 -330 0 -330 0 0 525 0 525 330 0 330 0 0 -525z"/>
</g>
</svg>
