<?xml version="1.0" standalone="no"?>
<!DOCTYPE svg PUBLIC "-//W3C//DTD SVG 20010904//EN"
 "http://www.w3.org/TR/2001/REC-SVG-20010904/DTD/svg10.dtd">
<svg version="1.0" xmlns="http://www.w3.org/2000/svg"
 width="358.000000pt" height="400.000000pt" viewBox="0 0 358.000000 400.000000"
 preserveAspectRatio="xMidYMid meet">

<g transform="translate(0.000000,400.000000) scale(0.100000,-0.100000)"
fill="#000000" stroke="none">
<path d="M362 3759 c-76 -37 -135 -113 -152 -192 -7 -36 -10 -470 -8 -1397 l3
-1345 28 -57 c30 -62 87 -116 153 -145 36 -17 93 -18 720 -21 l681 -3 22 -171
c23 -179 29 -201 61 -218 34 -18 73 -9 249 58 l174 67 70 132 69 131 118 4
c109 3 120 5 144 27 l26 24 0 252 0 252 136 264 c75 145 157 301 181 346 l44
83 49 -25 c28 -14 50 -27 50 -29 0 -2 -74 -146 -165 -318 -109 -208 -165 -325
-165 -345 0 -37 26 -70 60 -78 57 -13 74 12 273 389 109 208 187 369 187 384
0 44 -26 70 -121 117 -49 25 -89 47 -89 50 0 3 29 64 65 135 36 71 65 141 65
154 0 13 -8 33 -17 45 -10 12 -103 69 -208 128 -243 135 -257 136 -315 24
l-29 -56 -1 661 0 661 -23 21 -23 22 -1126 0 -1125 0 -61 -31z m2196 -251 l-3
-123 -510 1 c-280 1 -757 2 -1059 3 l-548 1 -34 34 c-27 27 -34 42 -34 74 0
58 15 89 52 112 32 20 51 20 1086 20 l1053 0 -3 -122z m-2046 -286 l98 -5 0
-1223 0 -1224 -86 0 c-84 0 -87 1 -120 34 l-34 34 0 1206 0 1207 22 -12 c13
-7 67 -14 120 -17z m2048 -554 l0 -552 -347 -673 -348 -673 -547 0 -548 0 0
1225 0 1225 895 0 895 0 0 -552z m442 -364 c54 -31 98 -59 96 -64 -9 -26 -84
-160 -89 -160 -5 0 -211 108 -217 115 -2 1 16 42 40 89 30 60 47 85 57 81 7
-3 58 -30 113 -61z m-116 -349 l52 -27 -82 -157 c-44 -86 -215 -416 -380 -732
l-298 -576 -96 -37 c-52 -20 -97 -34 -100 -32 -2 3 -10 47 -17 98 l-13 93 320
620 c177 341 348 671 380 733 l60 113 61 -34 c34 -19 85 -46 113 -62z m-326
-1150 c0 -28 -4 -35 -20 -35 -19 0 -19 1 -3 35 9 19 18 35 20 35 2 0 3 -16 3
-35z"/>
<path d="M1128 2836 c-26 -19 -39 -62 -28 -90 21 -57 9 -56 570 -56 l517 0 23
25 c30 32 30 78 0 110 l-23 25 -521 0 c-412 -1 -525 -3 -538 -14z"/>
<path d="M1354 2480 c-56 -23 -71 -95 -28 -135 l27 -25 304 0 c247 0 309 3
332 15 49 25 57 87 15 126 l-26 24 -301 2 c-166 1 -312 -2 -323 -7z"/>
</g>
</svg>
