<?xml version="1.0" standalone="no"?>
<!DOCTYPE svg PUBLIC "-//W3C//DTD SVG 20010904//EN"
 "http://www.w3.org/TR/2001/REC-SVG-20010904/DTD/svg10.dtd">
<svg version="1.0" xmlns="http://www.w3.org/2000/svg"
 width="399.000000pt" height="400.000000pt" viewBox="0 0 399.000000 400.000000"
 preserveAspectRatio="xMidYMid meet">

<g transform="translate(0.000000,400.000000) scale(0.100000,-0.100000)"
fill="#000000" stroke="none">
<path d="M258 3775 c-19 -13 -41 -39 -47 -56 -8 -23 -11 -496 -11 -1679 l0
-1647 23 -34 c48 -73 -1 -69 900 -69 l807 0 0 89 0 90 -387 0 c-214 1 -562 1
-775 1 l-388 0 0 1580 0 1580 1175 0 1175 0 0 -354 0 -353 61 -7 c34 -3 75 -6
90 -6 l29 0 0 390 c0 432 -1 443 -62 480 -33 20 -47 20 -1293 20 l-1260 0 -37
-25z"/>
<path d="M2165 2814 c-50 -18 -102 -67 -126 -119 -18 -38 -19 -91 -19 -1176 0
-1263 -5 -1176 68 -1251 67 -70 45 -69 838 -66 l711 3 49 30 c60 37 89 80 104
148 7 37 10 396 8 1167 l-3 1115 -22 40 c-27 51 -57 79 -113 104 -44 20 -61
21 -750 20 -592 0 -711 -3 -745 -15z m1433 -166 c17 -17 17 -2249 0 -2266 -9
-9 -175 -12 -687 -12 -614 0 -676 1 -693 17 -17 15 -18 64 -18 1129 0 998 2
1114 16 1128 14 14 90 16 693 16 513 0 680 -3 689 -12z"/>
<path d="M2875 749 c-17 -5 -44 -22 -59 -38 -53 -55 -32 -147 39 -177 44 -18
69 -18 111 2 66 31 85 118 39 173 -24 27 -40 36 -85 46 -8 2 -29 -1 -45 -6z"/>
<path d="M1510 833 c-30 -11 -70 -57 -76 -88 -13 -73 44 -135 123 -135 114 0
162 125 77 199 -34 30 -81 39 -124 24z"/>
</g>
</svg>
