<?xml version="1.0" standalone="no"?>
<!DOCTYPE svg PUBLIC "-//W3C//DTD SVG 20010904//EN"
 "http://www.w3.org/TR/2001/REC-SVG-20010904/DTD/svg10.dtd">
<svg version="1.0" xmlns="http://www.w3.org/2000/svg"
 width="400.000000pt" height="400.000000pt" viewBox="0 0 400.000000 400.000000"
 preserveAspectRatio="xMidYMid meet">

<g transform="translate(0.000000,400.000000) scale(0.100000,-0.100000)"
fill="#000000" stroke="none">
<path d="M1846 3775 c-139 -35 -289 -135 -372 -247 -91 -124 -154 -296 -154
-420 l0 -58 195 0 195 0 0 35 c0 97 76 208 174 255 85 40 149 41 231 2 111
-53 166 -140 173 -274 4 -81 2 -91 -26 -153 -36 -75 -76 -117 -147 -151 -45
-21 -64 -24 -182 -24 l-133 0 0 -277 -1 -278 -657 -403 c-361 -221 -678 -418
-703 -437 -99 -72 -188 -213 -225 -355 -25 -95 -22 -254 6 -345 68 -217 208
-364 404 -424 68 -21 77 -21 1377 -21 l1308 0 80 25 c179 57 324 206 388 399
22 68 27 100 27 196 1 136 -12 195 -66 309 -31 65 -56 99 -116 159 -70 70
-134 111 -747 487 l-670 410 -3 80 -3 80 49 17 c132 47 279 187 356 340 201
399 24 892 -377 1049 -73 29 -95 33 -202 35 -83 3 -139 -1 -179 -11z m817
-2356 c359 -221 667 -415 686 -433 45 -42 61 -83 61 -156 0 -91 -38 -154 -117
-194 -30 -15 -145 -16 -1307 -14 l-1274 3 -38 31 c-21 17 -49 50 -61 74 -42
79 -24 198 40 258 25 23 1337 832 1350 832 5 0 302 -180 660 -401z"/>
</g>
</svg>
