<?xml version="1.0" standalone="no"?>
<!DOCTYPE svg PUBLIC "-//W3C//DTD SVG 20010904//EN"
 "http://www.w3.org/TR/2001/REC-SVG-20010904/DTD/svg10.dtd">
<svg version="1.0" xmlns="http://www.w3.org/2000/svg"
 width="400.000000pt" height="400.000000pt" viewBox="0 0 400.000000 400.000000"
 preserveAspectRatio="xMidYMid meet">

<g transform="translate(0.000000,400.000000) scale(0.100000,-0.100000)"
fill="#000000" stroke="none">
<path d="M2586 3780 c-58 -23 -98 -58 -134 -120 -26 -44 -27 -50 -27 -200 0
-140 2 -159 22 -196 l22 -41 -49 -95 c-60 -115 -117 -266 -170 -452 l-41 -140
25 -20 c29 -25 46 -57 46 -85 0 -16 19 -30 79 -60 l78 -40 28 107 c55 210 178
535 238 630 l27 42 242 -2 242 -3 63 -123 c74 -148 168 -426 212 -629 l31
-142 0 -816 c0 -915 5 -857 -72 -896 -35 -18 -64 -19 -468 -19 -347 0 -437 3
-464 14 -33 14 -35 13 -67 -21 -19 -20 -66 -62 -106 -93 l-72 -58 22 -19 c34
-30 67 -48 130 -71 56 -21 71 -22 551 -22 544 0 538 -1 642 65 62 40 114 102
151 181 l28 59 3 855 c2 608 0 875 -8 925 -42 256 -195 714 -294 878 l-32 54
28 50 c27 49 29 56 29 182 0 112 -3 138 -21 179 -26 57 -60 95 -120 130 l-45
27 -350 2 c-326 2 -353 1 -399 -17z m522 -259 l142 -1 0 -65 0 -65 -275 0
-275 0 0 68 0 67 132 -2 c73 -1 197 -2 276 -2z"/>
<path d="M1609 2653 c-71 -74 -161 -220 -189 -306 l-12 -39 -30 36 c-66 80
-173 125 -298 126 -85 0 -124 15 -166 63 l-36 42 7 -55 c9 -68 32 -114 80
-162 45 -45 94 -63 250 -92 l120 -23 -55 -7 c-103 -13 -150 -36 -215 -105
-141 -150 -162 -168 -214 -188 l-52 -19 58 -18 c231 -70 409 -4 521 191 18 32
31 49 28 38 -3 -11 -10 -55 -15 -98 -24 -173 29 -319 148 -413 l55 -44 14 43
c7 23 16 94 19 158 7 135 -9 227 -57 328 -17 35 -29 65 -28 67 2 1 23 -21 46
-49 95 -114 223 -202 329 -227 63 -14 140 -6 201 22 42 20 55 38 27 38 -29 0
-78 32 -144 94 -82 77 -115 100 -177 125 l-49 20 88 0 c105 1 146 18 199 83
36 44 78 108 78 119 0 4 -25 -1 -56 -9 -47 -13 -70 -14 -152 -4 -53 7 -111 12
-128 12 -50 0 -129 -28 -184 -65 -29 -19 -54 -35 -57 -35 -10 0 7 80 33 148
14 38 49 101 80 142 30 40 52 76 47 81 -4 4 -24 10 -43 14 -31 6 -39 2 -71
-32z"/>
<path d="M725 2307 c-161 -57 -289 -155 -371 -283 -145 -227 -193 -636 -108
-934 103 -363 417 -684 799 -817 246 -85 557 -86 815 -2 184 59 361 170 491
306 163 170 255 352 311 608 19 84 22 133 23 300 0 134 -4 218 -13 255 -67
276 -179 422 -397 520 -49 22 -65 26 -65 15 0 -37 -109 -125 -155 -125 -35 0
-9 -23 75 -65 62 -31 102 -45 130 -45 39 0 40 -1 34 -27 -13 -56 -56 -139 -91
-175 -83 -85 -269 -99 -382 -29 l-48 29 -7 -92 c-10 -147 -48 -257 -109 -314
-23 -22 -28 -22 -68 -12 -127 34 -228 147 -284 318 -10 33 -22 52 -29 49 -199
-77 -358 -77 -507 -2 -69 35 -158 138 -146 169 3 7 27 21 54 31 85 32 177 88
231 141 28 29 52 57 52 63 0 5 -16 18 -35 27 -42 20 -74 58 -82 96 -3 16 -11
28 -17 27 -6 0 -51 -15 -101 -32z"/>
</g>
</svg>
