<?xml version="1.0" standalone="no"?>
<!DOCTYPE svg PUBLIC "-//W3C//DTD SVG 20010904//EN"
 "http://www.w3.org/TR/2001/REC-SVG-20010904/DTD/svg10.dtd">
<svg version="1.0" xmlns="http://www.w3.org/2000/svg"
 width="400.000000pt" height="400.000000pt" viewBox="0 0 400.000000 400.000000"
 preserveAspectRatio="xMidYMid meet">

<g transform="translate(0.000000,400.000000) scale(0.100000,-0.100000)"
fill="#000000" stroke="none">
<path d="M1220 3811 c-82 -17 -145 -68 -178 -144 -8 -19 -12 -105 -12 -277 l0
-249 -332 -3 -333 -3 -46 -27 c-55 -32 -93 -79 -108 -133 -8 -28 -11 -420 -11
-1311 0 -1428 -5 -1329 75 -1403 23 -22 60 -44 81 -50 56 -16 3244 -15 3299 0
56 16 109 61 136 116 l24 48 0 1295 c0 1457 7 1329 -78 1407 -63 58 -97 63
-447 63 l-300 0 0 225 c0 126 -5 247 -11 276 -13 60 -60 119 -123 152 l-41 22
-780 2 c-429 0 -796 -2 -815 -6z m1593 -169 c16 -18 19 -81 17 -399 l0 -103
-825 0 -825 0 0 240 c0 227 1 241 20 260 20 20 33 20 808 20 743 0 790 -1 805
-18z m815 -672 l32 -20 0 -1277 0 -1277 -22 -23 -21 -23 -1609 0 -1609 0 -24
26 -25 27 0 1263 c0 694 3 1270 6 1279 18 45 -22 44 1654 45 1563 0 1585 0
1618 -20z"/>
<path d="M1846 2594 c-360 -71 -633 -331 -717 -681 -27 -110 -29 -283 -5 -394
58 -272 231 -494 481 -619 139 -69 246 -94 405 -93 191 0 340 45 495 148 440
293 537 898 210 1310 -207 261 -554 392 -869 329z m364 -164 c128 -37 224 -94
325 -195 100 -99 154 -188 196 -325 34 -108 34 -302 0 -410 -85 -274 -291
-467 -566 -531 -83 -19 -258 -14 -348 10 -148 39 -292 131 -390 248 -60 72
-131 216 -153 308 -22 98 -20 260 5 355 74 289 310 507 603 560 81 14 242 4
328 -20z"/>
<path d="M1930 2005 l0 -225 -225 0 -225 0 0 -75 0 -75 225 0 225 0 0 -225 0
-225 75 0 75 0 0 225 0 225 230 0 230 0 0 75 0 75 -230 0 -230 0 0 225 0 225
-75 0 -75 0 0 -225z"/>
</g>
</svg>
