<?xml version="1.0" standalone="no"?>
<!DOCTYPE svg PUBLIC "-//W3C//DTD SVG 20010904//EN"
 "http://www.w3.org/TR/2001/REC-SVG-20010904/DTD/svg10.dtd">
<svg version="1.0" xmlns="http://www.w3.org/2000/svg"
 width="385.000000pt" height="400.000000pt" viewBox="0 0 385.000000 400.000000"
 preserveAspectRatio="xMidYMid meet">

<g transform="translate(0.000000,400.000000) scale(0.100000,-0.100000)"
fill="#000000" stroke="none">
<path d="M348 3790 c-52 -16 -99 -52 -121 -94 l-22 -41 0 -1660 c0 -1655 0
-1660 20 -1695 12 -19 40 -48 64 -65 l43 -30 1086 -3 1086 -2 51 25 c56 27 90
71 100 128 l7 37 412 0 c411 0 411 0 461 24 56 26 88 57 104 99 8 19 11 290
11 841 0 898 3 855 -64 913 -60 54 -74 55 -519 57 l-412 1 3 647 c2 428 -1
661 -8 687 -13 51 -43 87 -93 114 l-42 22 -1070 2 c-588 1 -1082 -2 -1097 -7z
m2133 -130 c18 -10 19 -26 19 -480 l0 -470 -500 -1 c-275 0 -513 -1 -530 -1
-16 0 -273 1 -570 1 l-540 1 0 462 c0 415 2 463 17 480 15 17 61 18 1050 18
694 0 1041 -3 1054 -10z m15 -2200 c-2 -856 -5 -1113 -15 -1123 -19 -19 -2081
-17 -2104 2 -16 12 -17 103 -17 1122 l0 1109 1070 0 1070 0 -4 -1110z m988
708 c12 -17 16 -49 16 -130 l0 -108 -423 0 -422 0 1 63 c1 34 2 92 3 130 l1
67 404 0 405 0 15 -22z m-206 -367 l222 -1 0 -620 c0 -607 0 -620 -20 -640
-19 -19 -33 -20 -397 -20 -208 0 -388 -3 -400 -6 -22 -6 -23 -4 -23 62 l0 69
90 -3 c355 -14 648 255 600 550 -40 252 -315 443 -611 426 l-79 -5 0 93 0 93
113 3 c61 2 150 2 197 1 47 -1 185 -2 308 -2z m-304 -374 c142 -71 213 -182
204 -321 -10 -154 -130 -272 -317 -311 -48 -10 -93 -13 -132 -9 l-59 7 0 332
c0 182 3 335 8 339 4 5 55 6 114 4 99 -4 113 -7 182 -41z"/>
<path d="M530 3520 c-19 -19 -20 -33 -20 -335 l0 -315 26 -16 c32 -21 80 -20
105 2 18 16 19 35 19 335 0 317 0 318 -22 333 -31 22 -84 20 -108 -4z"/>
<path d="M560 2443 c-8 -3 -23 -12 -32 -21 -16 -14 -18 -42 -18 -328 l0 -313
26 -20 c34 -27 78 -27 104 -1 19 19 20 33 20 333 0 286 -2 315 -17 330 -21 18
-62 28 -83 20z"/>
</g>
</svg>
